<?xml version="1.0" encoding="utf-8"?><svg xmlns="http://www.w3.org/2000/svg" viewBox="0 0 45.67 38.25"><defs><style>.cls-1{fill:#430b89;}</style></defs><title>back-arrow</title><g id="Слой_2" data-name="Слой 2"><g id="Capa_1" data-name="Capa 1"><path class="cls-1" d="M1.2,32.81a2.71,2.71,0,0,0,3.1.1c5.7-3.6,13.8-4.3,19.4-4.3v6.3A3.25,3.25,0,0,0,25.8,38a3.57,3.57,0,0,0,3.7-.7l14.9-15a4.53,4.53,0,0,0,0-6.3L29.5,1a3.21,3.21,0,0,0-3.7-.7,3.25,3.25,0,0,0-2.1,3.1v6.5C7.2,12.21,1.8,22.51.1,29.91A2.56,2.56,0,0,0,1.2,32.81Z"/></g></g></svg>
